# Blender 4.5.3 LTS
# www.blender.org
mtllib Nave.mtl
o Cube
v 1.000000 0.249531 -0.784232
v 1.000000 0.249531 1.000000
v -1.000000 0.249531 -1.389760
v -1.000000 -1.286370 -1.387805
v -1.000000 0.175083 1.574566
v -1.000000 -1.286370 1.565091
v 0.013314 0.249531 1.000000
v 0.013314 0.249531 -0.784232
v -5.828605 -0.575204 -0.464603
v -5.889689 -0.916910 -0.464603
v -5.828605 -0.575204 0.490970
v -5.889689 -0.916910 0.490970
v 2.671808 0.249531 -0.784232
v 2.671808 -0.018676 1.000000
v 3.834043 0.249531 -0.784232
v 3.834043 -0.348454 1.000000
v 7.213190 -0.104072 -0.287512
v 7.213190 -0.997172 -0.287512
v 7.213190 -0.104072 0.749987
v 7.213190 -0.997172 0.749987
v 1.000000 -1.907130 -0.784232
v 1.000000 -1.907130 1.000000
v -1.000000 -1.907130 -0.784232
v -1.000000 -1.907130 1.000000
v 0.013314 -1.907130 -0.784232
v 0.013314 -1.907130 1.000000
v 2.671808 -1.810018 -0.784232
v 3.076380 -1.557369 0.898625
v 4.238615 -1.511738 -0.784232
v 4.238615 -1.511738 1.000000
v 7.213190 -1.001321 -0.287512
v 7.213190 -1.001321 0.749987
v 1.000000 0.249531 -1.401170
v 1.000000 -1.286370 -1.401170
v -1.000000 0.249531 -1.401170
v -1.000000 -1.286370 -1.401170
v 0.013314 -1.286370 -1.401170
v 0.013314 0.249531 -1.401170
v 7.213190 -0.104072 -0.286230
v 7.213190 -0.997172 -0.286230
v 7.213190 -0.104072 -0.286230
v 7.213190 -0.997172 -0.286230
v 7.213190 -0.104072 -0.286230
v 7.213190 -0.997172 -0.286230
v 1.000000 -1.907130 -0.785653
v -1.000000 -1.907130 -0.785653
v 0.013314 -1.907130 -0.785653
v 2.671808 -1.700535 -0.813891
v 4.238615 -1.511738 -0.813891
v 7.213190 -0.980855 -0.304758
v 7.229085 -0.119150 1.177119
v 7.181376 -0.810792 1.159479
v -1.000000 0.175083 1.568838
v -1.000000 -1.286370 1.568838
v 0.013314 0.175083 1.568838
v 0.013314 -1.286370 1.568838
v 7.216009 -0.104072 0.763730
v 7.216009 -0.997172 0.763730
v 7.216009 -0.104072 0.763730
v 7.216009 -0.997172 0.763730
v 7.213190 -0.104072 0.754528
v 7.213190 -0.997172 0.754528
v 1.000000 -1.736918 0.985677
v -1.000000 -1.907130 0.985677
v 0.013314 -1.907130 0.985677
v 3.076380 -1.657632 0.988475
v 4.238615 -1.511738 0.988475
v 7.213190 -1.001321 0.743286
v -1.000000 -0.968193 -2.073665
v 1.000000 0.084509 -2.087030
v 1.000000 -0.968193 -2.087030
v -1.000000 0.084509 -2.087030
v -1.000000 -0.968193 -2.087030
v 0.013314 -0.968193 -2.087030
v 0.013314 0.084509 -2.087030
v -3.290695 -0.262239 -6.093474
v -1.290695 -0.082261 -6.106839
v -1.290695 -0.262239 -6.106839
v -3.290695 -0.082261 -6.106839
v -3.290695 -0.262239 -6.106839
v -2.277381 -0.262239 -6.106839
v -2.277381 -0.082261 -6.106839
v 1.000000 -2.233807 -0.784232
v 1.000000 -2.233807 1.000000
v 2.671808 -2.353618 -0.784232
v 2.671808 -2.353618 1.000000
v 2.671808 -2.353618 0.988475
v 2.671808 -2.360209 -0.784232
v 2.671808 -2.360209 1.000000
v 4.238615 -1.532629 -0.784232
v 4.238615 -1.532629 1.000000
v 2.671808 -2.360209 -0.813891
v 4.238615 -1.532629 -0.813891
v 2.671808 -2.360209 0.988475
v 4.238615 -1.502716 0.988475
v 7.180579 -0.209132 0.723578
v 7.156240 -0.804090 1.143560
v 7.212897 -0.209132 0.751667
v 7.212897 -0.804090 1.188103
v 7.212897 -0.209132 0.751667
v 7.212897 -0.977012 0.751667
v 7.213190 -0.209132 0.752482
v 7.213190 -0.804090 1.177359
v 7.216098 -1.286370 -1.401170
v 1.000000 0.249531 0.784232
v 1.000000 0.249531 -1.000000
v -1.000000 0.249531 1.389760
v -1.000000 -1.286370 1.387805
v -1.000000 0.175083 -1.574566
v -1.000000 -1.286370 -1.565091
v 0.013314 0.249531 -1.000000
v 0.013314 0.249531 0.784232
v -5.828605 -0.575204 0.464603
v -5.889689 -0.916910 0.464603
v -5.828605 -0.575204 -0.490970
v -5.889689 -0.916910 -0.490970
v 2.671808 0.249531 0.784232
v 2.671808 -0.018676 -1.000000
v 3.834043 0.249531 0.784232
v 3.834043 -0.348454 -1.000000
v 7.213190 -0.104072 0.287512
v 7.213190 -0.997172 0.287512
v 7.213190 -0.104072 -0.749987
v 7.213190 -0.997172 -0.749987
v 1.000000 -1.907130 0.784232
v 1.000000 -1.907130 -1.000000
v -1.000000 -1.907130 0.784232
v -1.000000 -1.907130 -1.000000
v 0.013314 -1.907130 0.784232
v 0.013314 -1.907130 -1.000000
v 2.671808 -1.810018 0.784232
v 3.076380 -1.557369 -0.898625
v 4.238615 -1.511738 0.784232
v 4.238615 -1.511738 -1.000000
v 7.213190 -1.001321 0.287512
v 7.213190 -1.001321 -0.749987
v 1.000000 0.249531 1.401170
v 1.000000 -1.286370 1.401170
v -1.000000 0.249531 1.401170
v -1.000000 -1.286370 1.401170
v 0.013314 -1.286370 1.401170
v 0.013314 0.249531 1.401170
v 7.213190 -0.104072 0.286230
v 7.213190 -0.997172 0.286230
v 7.213190 -0.104072 0.286230
v 7.213190 -0.997172 0.286230
v 7.213190 -0.104072 0.286230
v 7.213190 -0.997172 0.286230
v 1.000000 -1.907130 0.785653
v -1.000000 -1.907130 0.785653
v 0.013314 -1.907130 0.785653
v 2.671808 -1.700535 0.813891
v 4.238615 -1.511738 0.813891
v 7.213190 -0.980855 0.304758
v 7.229085 -0.119150 -1.177119
v 7.181376 -0.810792 -1.159479
v -1.000000 0.175083 -1.568838
v -1.000000 -1.286370 -1.568838
v 0.013314 0.175083 -1.568838
v 0.013314 -1.286370 -1.568838
v 7.216009 -0.104072 -0.763730
v 7.216009 -0.997172 -0.763730
v 7.216009 -0.104072 -0.763730
v 7.216009 -0.997172 -0.763730
v 7.213190 -0.104072 -0.754528
v 7.213190 -0.997172 -0.754528
v 1.000000 -1.736918 -0.985677
v -1.000000 -1.907130 -0.985677
v 0.013314 -1.907130 -0.985677
v 3.076380 -1.657632 -0.988475
v 4.238615 -1.511738 -0.988475
v 7.213190 -1.001321 -0.743286
v -1.000000 -0.968193 2.073665
v 1.000000 0.084509 2.087030
v 1.000000 -0.968193 2.087030
v -1.000000 0.084509 2.087030
v -1.000000 -0.968193 2.087030
v 0.013314 -0.968193 2.087030
v 0.013314 0.084509 2.087030
v -3.290695 -0.262239 6.093474
v -1.290695 -0.082261 6.106839
v -1.290695 -0.262239 6.106839
v -3.290695 -0.082261 6.106839
v -3.290695 -0.262239 6.106839
v -2.277381 -0.262239 6.106839
v -2.277381 -0.082261 6.106839
v 1.000000 -2.233807 0.784232
v 1.000000 -2.233807 -1.000000
v 2.671808 -2.353618 0.784232
v 2.671808 -2.353618 -1.000000
v 2.671808 -2.353618 -0.988475
v 2.671808 -2.360209 0.784232
v 2.671808 -2.360209 -1.000000
v 4.238615 -1.532629 0.784232
v 4.238615 -1.532629 -1.000000
v 2.671808 -2.360209 0.813891
v 4.238615 -1.532629 0.813891
v 2.671808 -2.360209 -0.988475
v 4.238615 -1.502716 -0.988475
v 7.180579 -0.209132 -0.723578
v 7.156240 -0.804090 -1.143560
v 7.212897 -0.209132 -0.751667
v 7.212897 -0.804090 -1.188103
v 7.212897 -0.209132 -0.751667
v 7.212897 -0.977012 -0.751667
v 7.213190 -0.209132 -0.752482
v 7.213190 -0.804090 -1.177359
v 7.216098 -1.286370 1.401170
vn -0.0733 0.9973 -0.0000
vn 0.0515 0.9748 0.2170
vn -0.0753 -0.9972 -0.0000
vn 1.0000 -0.0000 -0.0000
vn -1.0000 -0.0000 -0.0000
vn 0.2318 -0.6268 -0.7439
vn -0.0000 1.0000 -0.0000
vn -0.9844 0.1760 -0.0000
vn -0.1589 0.9870 0.0248
vn -0.1880 -0.0013 -0.9822
vn -0.2117 0.0378 0.9766
vn 0.0524 0.9469 0.3173
vn -0.0000 0.9889 0.1487
vn -0.0000 -1.0000 -0.0000
vn 0.0206 0.9991 0.0358
vn -0.0000 -0.0000 -1.0000
vn 0.8666 -0.4990 -0.0000
vn 0.1691 -0.9856 -0.0000
vn -0.0721 0.9974 -0.0000
vn -0.0045 0.0839 0.9965
vn -0.1148 0.9526 -0.2819
vn -0.0000 0.9723 -0.2339
vn -0.2398 0.7286 0.6416
vn 0.1766 -0.0000 -0.9843
vn -0.0000 -0.7041 -0.7101
vn 0.0748 -0.7021 -0.7081
vn 0.0160 -0.2614 -0.9651
vn -0.0000 -0.0000 1.0000
vn 0.1649 -0.8867 0.4320
vn 0.0570 -0.0000 0.9984
vn 0.9911 0.1237 -0.0490
vn -0.9911 -0.1227 0.0505
vn 0.1862 -0.9217 0.3402
vn -0.1058 0.8426 0.5280
vn -0.0000 -0.6847 0.7288
vn 0.0870 -0.7117 0.6971
vn -0.0000 0.9915 0.1298
vn -0.1691 0.9856 -0.0000
vn -0.8688 -0.0000 0.4951
vn -0.0000 -0.9849 -0.1730
vn -0.0000 -0.9071 -0.4208
vn -0.0000 0.9991 -0.0415
vn 0.8688 -0.0000 -0.4951
vn 0.2945 0.9556 -0.0000
vn -0.0715 -0.9974 -0.0000
vn 0.0297 0.1114 0.9933
vn 0.8645 -0.5026 -0.0000
vn -0.4671 0.8842 -0.0000
vn 0.4670 -0.8842 -0.0000
vn -0.8767 0.4597 0.1418
vn -0.5725 0.4884 0.6586
vn -0.9410 -0.0000 0.3383
vn -0.6545 -0.0671 0.7531
vn -0.9407 -0.0066 0.3391
vn 0.9911 -0.1012 -0.0859
vn -0.5635 -0.4108 0.7167
vn -0.0150 0.9996 -0.0251
vn -0.0000 0.9915 -0.1298
vn 0.2318 -0.6268 0.7439
vn -0.0546 -0.1923 0.9798
vn -0.1589 0.9870 -0.0248
vn -0.1880 -0.0013 0.9822
vn -0.2180 -0.0063 -0.9759
vn -0.0000 -0.8154 0.5789
vn 0.0524 0.9469 -0.3173
vn -0.0000 0.9889 -0.1487
vn -0.1041 -0.9946 -0.0000
vn 0.0433 0.2701 0.9618
vn -0.7511 0.4406 -0.4916
vn 0.0758 -0.6655 0.7426
vn -0.0000 0.9723 0.2339
vn 0.1766 -0.0000 0.9843
vn -0.0000 -0.7041 0.7101
vn 0.1757 -0.4964 0.8501
vn 0.0580 -0.9983 -0.0000
vn 0.1649 -0.8867 -0.4320
vn 0.0530 -0.0291 -0.9982
vn -1.0000 -0.0000 0.0001
vn 0.8049 0.5398 0.2466
vn 0.1663 -0.9848 0.0510
vn -0.0000 -0.6847 -0.7288
vn 0.0870 -0.7117 -0.6971
vn 0.0733 -0.9973 -0.0000
vn -0.8688 -0.0000 -0.4951
vn -0.0000 -0.9849 0.1730
vn -0.0000 -0.9071 0.4208
vn -0.0000 0.9991 0.0415
vn 0.8688 -0.0000 0.4951
vn 0.0297 0.1114 -0.9933
vn 0.8753 -0.4627 0.1410
vn -0.7480 0.4430 -0.4943
vn -0.8767 0.4597 -0.1418
vn -0.5725 0.4884 -0.6586
vn -0.9410 -0.0000 -0.3383
vn 0.9514 -0.3051 0.0412
vn 0.9561 0.0053 0.2928
vn 0.5321 -0.0151 0.8465
vn -0.1785 -0.8961 -0.4064
vn -0.0150 0.9996 0.0251
vn 0.1757 -0.9844 -0.0000
vn -0.0546 -0.1923 -0.9798
vn -0.1684 0.9857 -0.0000
vn -0.1830 0.0327 -0.9826
vn -0.2180 -0.0063 0.9759
vn -0.0000 -0.8154 -0.5789
vn 0.1567 0.9767 0.1468
vn 0.1055 0.9524 -0.2859
vn 0.2598 0.9156 0.3069
vn 0.0433 0.2701 -0.9618
vn -0.7511 0.4406 0.4916
vn -0.0706 0.9973 0.0216
vn -0.0145 0.0838 0.9964
vn 0.0758 -0.6655 -0.7426
vn 0.1757 -0.4964 -0.8501
vn 0.0076 -0.2332 0.9724
vn 0.0530 -0.0291 0.9982
vn -1.0000 -0.0000 -0.0001
vn 0.8049 0.5398 -0.2466
vn 0.1663 -0.9848 -0.0510
vn 0.1173 -0.6800 0.7238
vn 0.8753 -0.4627 -0.1410
vn -0.7480 0.4430 0.4943
vn -0.1931 0.3528 0.9156
vn -0.5354 0.4996 0.6810
vn -1.0000 0.0004 0.0005
vn 0.9514 -0.3051 -0.0412
vn 0.9561 0.0053 -0.2928
vn 0.5321 -0.0151 -0.8465
vn -0.1785 -0.8961 0.4064
vn 0.0515 0.9748 -0.2170
vn -0.1830 0.0327 0.9826
vn -0.2117 0.0378 -0.9766
vn 0.1567 0.9767 -0.1468
vn 0.1055 0.9524 0.2859
vn 0.2598 0.9156 -0.3069
vn 0.0206 0.9991 -0.0358
vn -0.0706 0.9973 -0.0216
vn -0.0145 0.0838 -0.9964
vn -0.0045 0.0839 -0.9965
vn -0.1148 0.9526 0.2819
vn -0.2398 0.7286 -0.6416
vn 0.0748 -0.7021 0.7081
vn 0.0160 -0.2614 0.9651
vn 0.0076 -0.2332 -0.9724
vn 0.0570 -0.0000 -0.9984
vn 0.9911 0.1237 0.0490
vn -0.9911 -0.1227 -0.0505
vn 0.1862 -0.9217 -0.3402
vn -0.1058 0.8426 -0.5280
vn 0.1173 -0.6800 -0.7238
vn -0.1931 0.3528 -0.9156
vn -0.5354 0.4996 -0.6810
vn -1.0000 0.0004 -0.0005
vn -0.6545 -0.0671 -0.7531
vn -0.9407 -0.0066 -0.3391
vn 0.9911 -0.1012 0.0859
vn -0.5635 -0.4108 -0.7167
vt 0.748336 0.500000
vt 0.875000 0.750000
vt 0.748336 0.750000
vt 0.625000 0.750000
vt 0.522926 0.750000
vt 0.125000 0.500000
vt 0.125000 0.750000
vt 0.375000 0.750000
vt 0.375000 0.500000
vt 0.625000 0.500000
vt 0.251664 0.750000
vt 0.625000 0.000000
vt 0.375000 0.250000
vt 0.375000 0.000000
vt 0.875000 0.500000
vt 0.625000 0.250000
vt 0.375000 1.000000
vt 0.625000 1.000000
vt 0.625000 0.500000
vt 0.251664 0.500000
vt 0.375000 0.376664
vt 0.625000 0.873336
vt 0.375000 0.873336
vt 0.374362 0.750000
vt 0.375000 0.750000
vt 0.375000 0.750000
vt 0.625000 0.376664
s 0
usemtl Material
f 8/1/1 5/2/1 7/3/1
f 2/4/2 55/3/2 51/5/2
f 4/6/3 12/7/3 10/6/3
f 20/8/4 31/9/4 18/9/4
f 18/9/5 43/10/5 17/10/5
f 29/9/6 50/9/6 31/9/6
f 4/6/5 46/6/5 23/6/5
f 26/11/7 64/7/7 24/7/7
f 16/4/7 57/4/7 59/4/7
f 8/1/7 2/4/7 1/10/7
f 11/12/8 10/13/8 12/14/8
f 3/15/9 11/2/9 5/2/9
f 4/13/10 9/16/10 3/16/10
f 6/17/11 11/18/11 12/17/11
f 13/10/7 41/19/7 39/19/7
f 2/4/7 13/10/7 1/10/7
f 30/8/4 90/9/4 29/9/4
f 13/10/7 33/10/7 1/10/7
f 16/4/12 17/10/12 15/10/12
f 32/8/5 62/8/5 68/8/5
f 14/4/13 15/10/13 13/10/13
f 3/16/5 36/13/5 4/13/5
f 17/10/4 20/8/4 18/9/4
f 15/10/7 43/10/7 41/19/7
f 25/20/14 45/9/14 21/9/14
f 14/4/15 51/5/15 57/4/15
f 21/9/14 26/11/14 25/20/14
f 27/9/16 83/9/16 21/9/16
f 25/20/14 24/7/14 23/6/14
f 66/8/17 89/8/17 94/8/17
f 30/8/18 31/9/18 32/8/18
f 16/4/19 61/4/19 19/4/19
f 6/7/5 23/6/5 24/7/5
f 5/18/4 54/17/4 53/18/4
f 22/8/7 65/11/7 26/11/7
f 48/9/16 93/9/16 92/9/16
f 22/8/20 66/8/20 63/8/20
f 1/10/7 38/1/7 8/1/7
f 40/9/21 49/9/21 48/9/21
f 36/6/4 69/6/4 4/6/4
f 38/1/22 72/15/22 35/15/22
f 42/9/23 50/9/23 49/9/23
f 34/9/24 39/19/24 40/9/24
f 40/9/7 41/19/7 42/9/7
f 42/9/7 43/10/7 44/9/7
f 34/9/25 47/21/25 37/21/25
f 37/21/25 46/13/25 36/13/25
f 34/9/26 48/9/26 45/9/26
f 3/15/7 38/1/7 35/15/7
f 27/9/27 45/9/27 48/9/27
f 23/6/14 47/20/14 25/20/14
f 18/9/4 50/9/4 44/9/4
f 55/22/28 54/17/28 56/23/28
f 52/24/29 66/8/29 58/8/29
f 52/24/30 55/22/30 56/23/30
f 58/8/31 101/25/31 99/26/31
f 62/8/4 102/4/4 103/8/4
f 60/8/32 103/8/32 101/25/32
f 62/8/33 67/8/33 68/8/33
f 60/8/34 66/8/34 67/8/34
f 54/17/35 65/23/35 56/23/35
f 56/23/36 63/8/36 52/24/36
f 7/3/37 53/2/37 55/3/37
f 6/7/5 64/7/5 54/7/5
f 32/8/38 67/8/38 30/8/38
f 19/4/4 62/8/4 20/8/4
f 72/16/39 80/13/39 73/13/39
f 74/21/40 78/9/40 71/9/40
f 35/16/5 73/13/5 36/13/5
f 36/13/41 74/21/41 37/21/41
f 37/21/41 71/9/41 34/9/41
f 33/10/22 75/1/22 38/1/22
f 33/10/4 71/9/4 70/10/4
f 82/27/16 78/9/16 81/21/16
f 79/16/16 81/21/16 80/13/16
f 73/13/40 81/21/40 74/21/40
f 72/15/42 82/1/42 79/15/42
f 75/1/42 77/10/42 82/1/42
f 70/10/43 78/9/43 77/10/43
f 73/6/44 76/6/44 69/6/44
f 83/9/45 86/8/45 84/8/45
f 22/8/46 86/8/46 28/8/46
f 27/9/4 86/8/4 85/9/4
f 21/9/5 84/8/5 22/8/5
f 66/8/47 86/8/47 87/8/47
f 91/8/48 94/8/48 89/8/48
f 88/9/49 91/8/49 89/8/49
f 88/9/49 93/9/49 90/9/49
f 27/9/5 92/9/5 88/9/5
f 30/8/5 95/8/5 91/8/5
f 29/9/4 93/9/4 49/9/4
f 27/9/50 89/8/50 28/8/50
f 67/8/16 94/8/16 95/8/16
f 97/8/51 98/4/51 96/4/51
f 98/4/7 101/25/7 100/4/7
f 101/25/52 102/4/52 100/4/52
f 57/4/53 96/4/53 98/4/53
f 61/4/54 100/4/54 102/4/54
f 59/4/7 98/4/7 100/4/7
f 51/5/55 97/8/55 96/4/55
f 52/24/56 99/26/56 97/8/56
f 112/1/57 109/2/57 107/15/57
f 106/4/58 159/3/58 111/3/58
f 108/6/3 116/7/3 110/7/3
f 135/9/4 124/8/4 122/9/4
f 147/10/5 122/9/5 121/10/5
f 154/9/59 133/9/59 135/9/59
f 150/6/5 108/6/5 127/6/5
f 168/7/7 130/11/7 128/7/7
f 120/4/60 161/4/60 118/4/60
f 106/4/7 112/1/7 105/10/7
f 114/13/8 115/12/8 116/14/8
f 115/2/61 107/15/61 109/2/61
f 113/16/62 108/13/62 107/16/62
f 110/17/63 115/18/63 109/18/63
f 117/10/64 145/19/64 119/10/64
f 117/10/7 106/4/7 105/10/7
f 194/9/4 134/8/4 133/9/4
f 137/10/7 117/10/7 105/10/7
f 121/10/65 120/4/65 119/10/65
f 136/8/4 166/8/4 124/8/4
f 119/10/66 118/4/66 117/10/66
f 140/13/5 107/16/5 108/13/5
f 124/8/4 121/10/4 122/9/4
f 119/10/67 147/10/67 121/10/67
f 149/9/14 129/20/14 125/9/14
f 118/4/68 155/5/68 106/4/68
f 130/11/14 125/9/14 129/20/14
f 187/9/28 131/9/28 125/9/28
f 128/7/14 129/20/14 127/6/14
f 170/8/69 193/8/69 132/8/69
f 134/8/18 135/9/18 133/9/18
f 165/4/19 120/4/19 123/4/19
f 110/7/5 127/6/5 108/6/5
f 109/18/5 158/17/5 110/17/5
f 169/11/7 126/8/7 130/11/7
f 152/9/28 197/9/28 153/9/28
f 126/8/70 170/8/70 132/8/70
f 142/1/7 105/10/7 112/1/7
f 144/9/7 153/9/7 146/9/7
f 173/6/4 140/6/4 108/6/4
f 176/15/71 142/1/71 139/15/71
f 146/9/7 154/9/7 148/9/7
f 138/9/72 143/19/72 137/10/72
f 144/9/7 145/19/7 143/19/7
f 146/9/7 147/10/7 145/19/7
f 151/21/73 138/9/73 141/21/73
f 150/13/73 141/21/73 140/13/73
f 138/9/74 152/9/74 144/9/74
f 107/15/7 142/1/7 112/1/7
f 131/9/75 149/9/75 125/9/75
f 151/20/14 127/6/14 129/20/14
f 122/9/4 154/9/4 135/9/4
f 158/17/16 159/22/16 160/23/16
f 170/8/76 156/24/76 162/8/76
f 156/24/77 159/22/77 155/5/77
f 162/8/7 205/25/7 164/8/7
f 166/8/78 206/4/78 165/4/78
f 164/8/79 207/8/79 166/8/79
f 166/8/80 171/8/80 164/8/80
f 164/8/7 170/8/7 162/8/7
f 169/23/81 158/17/81 160/23/81
f 167/8/82 160/23/82 156/24/82
f 111/3/83 157/2/83 109/2/83
f 110/7/4 168/7/4 128/7/4
f 171/8/38 136/8/38 134/8/38
f 166/8/4 123/4/4 124/8/4
f 184/13/84 176/16/84 177/13/84
f 182/9/85 178/21/85 175/9/85
f 177/13/5 139/16/5 140/13/5
f 178/21/86 140/13/86 141/21/86
f 175/9/86 141/21/86 138/9/86
f 179/1/71 137/10/71 142/1/71
f 137/10/4 175/9/4 138/9/4
f 182/9/28 186/27/28 185/21/28
f 185/21/28 183/16/28 184/13/28
f 185/21/85 177/13/85 178/21/85
f 176/15/87 186/1/87 179/1/87
f 179/1/87 181/10/87 174/10/87
f 174/10/88 182/9/88 175/9/88
f 180/6/44 177/6/44 173/6/44
f 190/8/45 187/9/45 188/8/45
f 190/8/89 126/8/89 132/8/89
f 131/9/90 190/8/90 132/8/90
f 188/8/5 125/9/5 126/8/5
f 170/8/91 190/8/91 132/8/91
f 198/8/48 195/8/48 193/8/48
f 195/8/49 192/9/49 193/8/49
f 197/9/49 192/9/49 194/9/49
f 131/9/5 196/9/5 152/9/5
f 134/8/4 199/8/4 171/8/4
f 197/9/4 133/9/4 153/9/4
f 193/8/92 131/9/92 132/8/92
f 171/8/16 198/8/16 170/8/16
f 202/4/93 201/8/93 200/4/93
f 202/4/4 205/25/4 203/26/4
f 206/4/94 205/25/94 204/4/94
f 161/4/95 200/4/95 155/5/95
f 165/4/96 204/4/96 163/4/96
f 163/4/7 202/4/7 161/4/7
f 155/5/97 201/8/97 156/24/97
f 156/24/98 203/26/98 162/8/98
f 8/1/99 3/15/99 5/2/99
f 2/4/37 7/3/37 55/3/37
f 4/6/3 6/7/3 12/7/3
f 20/8/4 32/8/4 31/9/4
f 18/9/5 44/9/5 43/10/5
f 29/9/100 49/9/100 50/9/100
f 4/6/5 36/6/5 46/6/5
f 26/11/7 65/11/7 64/7/7
f 16/4/101 14/4/101 57/4/101
f 8/1/7 7/3/7 2/4/7
f 11/12/8 9/16/8 10/13/8
f 3/15/102 9/15/102 11/2/102
f 4/13/103 10/13/103 9/16/103
f 6/17/104 5/18/104 11/18/104
f 13/10/105 15/10/105 41/19/105
f 2/4/106 14/4/106 13/10/106
f 30/8/4 91/8/4 90/9/4
f 13/10/107 39/19/107 33/10/107
f 16/4/19 19/4/19 17/10/19
f 32/8/4 20/8/4 62/8/4
f 14/4/108 16/4/108 15/10/108
f 3/16/5 35/16/5 36/13/5
f 17/10/4 19/4/4 20/8/4
f 15/10/67 17/10/67 43/10/67
f 25/20/14 47/20/14 45/9/14
f 14/4/109 2/4/109 51/5/109
f 21/9/14 22/8/14 26/11/14
f 27/9/16 85/9/16 83/9/16
f 25/20/14 26/11/14 24/7/14
f 66/8/110 28/8/110 89/8/110
f 30/8/18 29/9/18 31/9/18
f 16/4/111 59/4/111 61/4/111
f 6/7/5 4/6/5 23/6/5
f 5/18/5 6/17/5 54/17/5
f 22/8/112 63/8/112 65/11/112
f 48/9/16 49/9/16 93/9/16
f 22/8/113 28/8/113 66/8/113
f 1/10/7 33/10/7 38/1/7
f 40/9/7 42/9/7 49/9/7
f 36/6/4 73/6/4 69/6/4
f 38/1/22 75/1/22 72/15/22
f 42/9/7 44/9/7 50/9/7
f 34/9/24 33/10/24 39/19/24
f 40/9/7 39/19/7 41/19/7
f 42/9/7 41/19/7 43/10/7
f 34/9/25 45/9/25 47/21/25
f 37/21/25 47/21/25 46/13/25
f 34/9/114 40/9/114 48/9/114
f 3/15/7 8/1/7 38/1/7
f 27/9/75 21/9/75 45/9/75
f 23/6/14 46/6/14 47/20/14
f 18/9/4 31/9/4 50/9/4
f 55/22/28 53/18/28 54/17/28
f 52/24/115 63/8/115 66/8/115
f 52/24/116 51/5/116 55/22/116
f 58/8/7 60/8/7 101/25/7
f 62/8/117 61/4/117 102/4/117
f 60/8/118 62/8/118 103/8/118
f 62/8/119 60/8/119 67/8/119
f 60/8/7 58/8/7 66/8/7
f 54/17/35 64/17/35 65/23/35
f 56/23/120 65/23/120 63/8/120
f 7/3/83 5/2/83 53/2/83
f 6/7/4 24/7/4 64/7/4
f 32/8/38 68/8/38 67/8/38
f 19/4/4 61/4/4 62/8/4
f 72/16/39 79/16/39 80/13/39
f 74/21/40 81/21/40 78/9/40
f 35/16/5 72/16/5 73/13/5
f 36/13/41 73/13/41 74/21/41
f 37/21/41 74/21/41 71/9/41
f 33/10/22 70/10/22 75/1/22
f 33/10/4 34/9/4 71/9/4
f 82/27/16 77/10/16 78/9/16
f 79/16/16 82/27/16 81/21/16
f 73/13/40 80/13/40 81/21/40
f 72/15/42 75/1/42 82/1/42
f 75/1/42 70/10/42 77/10/42
f 70/10/43 71/9/43 78/9/43
f 73/6/44 80/6/44 76/6/44
f 83/9/45 85/9/45 86/8/45
f 22/8/28 84/8/28 86/8/28
f 27/9/121 28/8/121 86/8/121
f 21/9/5 83/9/5 84/8/5
f 66/8/122 28/8/122 86/8/122
f 91/8/123 95/8/123 94/8/123
f 88/9/49 90/9/49 91/8/49
f 88/9/49 92/9/49 93/9/49
f 27/9/5 48/9/5 92/9/5
f 30/8/4 67/8/4 95/8/4
f 29/9/4 90/9/4 93/9/4
f 27/9/5 88/9/5 89/8/5
f 67/8/28 66/8/28 94/8/28
f 97/8/124 99/26/124 98/4/124
f 98/4/4 99/26/4 101/25/4
f 101/25/125 103/8/125 102/4/125
f 57/4/126 51/5/126 96/4/126
f 61/4/127 59/4/127 100/4/127
f 59/4/7 57/4/7 98/4/7
f 51/5/128 52/24/128 97/8/128
f 52/24/129 58/8/129 99/26/129
f 112/1/1 111/3/1 109/2/1
f 106/4/130 155/5/130 159/3/130
f 108/6/3 114/6/3 116/7/3
f 135/9/4 136/8/4 124/8/4
f 147/10/5 148/9/5 122/9/5
f 154/9/100 153/9/100 133/9/100
f 150/6/5 140/6/5 108/6/5
f 168/7/7 169/11/7 130/11/7
f 120/4/7 163/4/7 161/4/7
f 106/4/7 111/3/7 112/1/7
f 114/13/8 113/16/8 115/12/8
f 115/2/102 113/15/102 107/15/102
f 113/16/131 114/13/131 108/13/131
f 110/17/132 116/17/132 115/18/132
f 117/10/7 143/19/7 145/19/7
f 117/10/133 118/4/133 106/4/133
f 194/9/4 195/8/4 134/8/4
f 137/10/134 143/19/134 117/10/134
f 121/10/19 123/4/19 120/4/19
f 136/8/5 172/8/5 166/8/5
f 119/10/135 120/4/135 118/4/135
f 140/13/5 139/16/5 107/16/5
f 124/8/4 123/4/4 121/10/4
f 119/10/7 145/19/7 147/10/7
f 149/9/14 151/20/14 129/20/14
f 118/4/136 161/4/136 155/5/136
f 130/11/14 126/8/14 125/9/14
f 187/9/28 189/9/28 131/9/28
f 128/7/14 130/11/14 129/20/14
f 170/8/17 198/8/17 193/8/17
f 134/8/18 136/8/18 135/9/18
f 165/4/137 163/4/137 120/4/137
f 110/7/5 128/7/5 127/6/5
f 109/18/4 157/18/4 158/17/4
f 169/11/138 167/8/138 126/8/138
f 152/9/28 196/9/28 197/9/28
f 126/8/139 167/8/139 170/8/139
f 142/1/7 137/10/7 105/10/7
f 144/9/140 152/9/140 153/9/140
f 173/6/4 177/6/4 140/6/4
f 176/15/71 179/1/71 142/1/71
f 146/9/141 153/9/141 154/9/141
f 138/9/72 144/9/72 143/19/72
f 144/9/7 146/9/7 145/19/7
f 146/9/7 148/9/7 147/10/7
f 151/21/73 149/9/73 138/9/73
f 150/13/73 151/21/73 141/21/73
f 138/9/142 149/9/142 152/9/142
f 107/15/7 139/15/7 142/1/7
f 131/9/143 152/9/143 149/9/143
f 151/20/14 150/6/14 127/6/14
f 122/9/4 148/9/4 154/9/4
f 158/17/16 157/18/16 159/22/16
f 170/8/144 167/8/144 156/24/144
f 156/24/145 160/23/145 159/22/145
f 162/8/146 203/26/146 205/25/146
f 166/8/4 207/8/4 206/4/4
f 164/8/147 205/25/147 207/8/147
f 166/8/148 172/8/148 171/8/148
f 164/8/149 171/8/149 170/8/149
f 169/23/81 168/17/81 158/17/81
f 167/8/150 169/23/150 160/23/150
f 111/3/58 159/3/58 157/2/58
f 110/7/5 158/7/5 168/7/5
f 171/8/38 172/8/38 136/8/38
f 166/8/4 165/4/4 123/4/4
f 184/13/84 183/16/84 176/16/84
f 182/9/85 185/21/85 178/21/85
f 177/13/5 176/16/5 139/16/5
f 178/21/86 177/13/86 140/13/86
f 175/9/86 178/21/86 141/21/86
f 179/1/71 174/10/71 137/10/71
f 137/10/4 174/10/4 175/9/4
f 182/9/28 181/10/28 186/27/28
f 185/21/28 186/27/28 183/16/28
f 185/21/85 184/13/85 177/13/85
f 176/15/87 183/15/87 186/1/87
f 179/1/87 186/1/87 181/10/87
f 174/10/88 181/10/88 182/9/88
f 180/6/44 184/6/44 177/6/44
f 190/8/45 189/9/45 187/9/45
f 190/8/16 188/8/16 126/8/16
f 131/9/4 189/9/4 190/8/4
f 188/8/5 187/9/5 125/9/5
f 170/8/47 191/8/47 190/8/47
f 198/8/151 199/8/151 195/8/151
f 195/8/49 194/9/49 192/9/49
f 197/9/49 196/9/49 192/9/49
f 131/9/5 192/9/5 196/9/5
f 134/8/5 195/8/5 199/8/5
f 197/9/4 194/9/4 133/9/4
f 193/8/5 192/9/5 131/9/5
f 171/8/28 199/8/28 198/8/28
f 202/4/152 203/26/152 201/8/152
f 202/4/7 204/4/7 205/25/7
f 206/4/153 207/8/153 205/25/153
f 161/4/154 202/4/154 200/4/154
f 165/4/155 206/4/155 204/4/155
f 163/4/7 204/4/7 202/4/7
f 155/5/156 200/4/156 201/8/156
f 156/24/157 201/8/157 203/26/157
